<svg width="164" height="44" viewBox="0 0 164 44" fill="none" xmlns="http://www.w3.org/2000/svg">
<path d="M90.2922 22.1836C90.0667 20.4211 89.9554 18.7045 91.2707 17.7422C89.0911 18.7627 87.79 17.7107 87.4116 19.1603C87.1899 20.0082 86.7568 20.3868 86.2266 20.7015C86.6011 22.6423 87.3078 24.4591 88.274 26.109C88.2901 26.0518 88.3061 25.9946 88.3259 25.9364C88.7279 24.7176 90.4847 23.6885 90.2922 22.1836Z" fill="white"/>
<path d="M88.7943 17.4618C91.0871 17.4503 91.4711 15.3312 95.3103 15.6001C100.313 15.9501 100.961 11.73 103.262 8.50552C105.565 5.28104 107.666 7.56135 109.614 8.02294C110.9 8.32813 111.557 8.49693 112.323 8.61233C111.92 9.28088 112.127 9.92081 112.707 10.2794C112.535 9.43347 112.307 9.17788 112.954 8.42922C113.08 8.2833 113.418 8.39012 113.579 8.38821C114.711 8.38058 116.463 7.57565 117.538 6.90329C114.41 2.7604 109.397 0.0623779 103.406 0.0623779C93.2147 0.0623779 85.9023 7.73969 85.9023 17.23V17.3254C85.9023 18.1904 85.9844 19.0344 86.1033 19.866C86.8563 18.8513 86.4788 17.4732 88.7943 17.4618Z" fill="white"/>
<path d="M117.738 7.17505C117.336 8.37862 114.647 9.63274 113.8 9.9303C114.232 10.0199 115.079 9.8788 115.554 9.85114C116.819 11.194 116.038 12.1219 118.126 13.7661C118.639 14.1695 118.633 14.8571 118.096 15.314C116.266 16.8723 115.902 15.4274 114.801 15.6382C113.7 15.849 113.079 15.9625 112.233 15.6315C111.608 15.3864 110.918 15.0879 110.86 15.5686C111.696 15.7508 111.715 16.6511 113.099 16.9763C114.411 17.2853 116.435 18.5689 111.682 21.5311C111.94 22.3571 111.053 23.6722 109.945 24.2654C109.611 23.821 109.706 22.585 109.495 22.1482C109.339 21.8268 110.151 21.5016 110.354 21.1926C110.557 20.8826 110.352 20.9255 110.571 20.4716C110.791 20.0186 112.727 19.2423 111.51 19.5103C110.185 19.8021 105.714 21.1373 104.782 19.0839C104.676 19.5064 104.921 20.2971 105.947 20.608C104.631 22.2789 102.107 24.5305 97.6752 24.1205C98.23 23.6331 98.9367 21.3251 97.695 20.1683C98.4234 21.9269 96.8959 24.315 95.5164 24.8767C91.1865 26.642 91.8423 27.0512 90.043 28.5905C93.1944 32.2508 97.9252 34.5874 103.5 34.5874C113.69 34.5874 121.003 26.91 121.003 17.4197V17.3244C121.002 13.5353 119.806 10.0314 117.738 7.17505Z" fill="white"/>
<path d="M0.197266 17.806V17.7373C0.197266 10.9202 5.28102 5.3363 12.567 5.3363C17.0403 5.3363 19.718 6.84316 21.9212 9.03572L18.5999 12.9068C16.7695 11.2283 14.906 10.2002 12.533 10.2002C8.53432 10.2002 5.65372 13.5572 5.65372 17.6677V17.7364C5.65372 21.8468 8.46639 25.2725 12.533 25.2725C15.2447 25.2725 16.9053 24.1758 18.7688 22.4639L22.0901 25.8552C19.6501 28.4932 16.9384 30.1374 12.3632 30.1374C5.38198 30.1374 0.197266 24.6908 0.197266 17.806Z" fill="white"/>
<path d="M22.5742 17.806V17.7373C22.5742 10.9202 27.8948 5.3363 35.2157 5.3363C42.5366 5.3363 47.7892 10.8516 47.7892 17.6686V17.7373C47.7892 24.5544 42.4686 30.1383 35.1477 30.1383C27.8269 30.1383 22.5742 24.6221 22.5742 17.806ZM42.3327 17.806V17.7373C42.3327 13.6269 39.3502 10.2011 35.1477 10.2011C30.9452 10.2011 28.0307 13.5582 28.0307 17.6686V17.7373C28.0307 21.8478 31.0132 25.2735 35.2157 25.2735C39.4182 25.2735 42.3327 21.9164 42.3327 17.806Z" fill="white"/>
<path d="M52.1191 5.74744H57.3388V29.7264H52.1191V5.74744Z" fill="white"/>
<path d="M61.666 5.74744H66.479L77.5947 20.5117V5.74744H82.7464V29.7264H78.3071L66.8177 14.4824V29.7264H61.666V5.74744Z" fill="white"/>
<path d="M143.369 5.74744L135.439 17.4627L143.708 29.7264H137.608L132.288 21.5055L126.933 29.7264H121.002L129.271 17.5314L121.341 5.74744H127.441L132.389 13.523L137.438 5.74744H143.369Z" fill="white"/>
<path d="M145.027 26.232L148.112 22.4982C150.247 24.2797 152.483 25.4099 155.195 25.4099C157.33 25.4099 158.618 24.5534 158.618 23.1486V23.08C158.618 21.7438 157.805 21.0591 153.84 20.031C149.061 18.7978 145.977 17.4617 145.977 12.6999V12.6312C145.977 8.2804 149.435 5.40308 154.281 5.40308C157.738 5.40308 160.686 6.49888 163.092 8.45207L160.381 12.4261C158.279 10.9527 156.212 10.0619 154.213 10.0619C152.213 10.0619 151.162 10.987 151.162 12.1515V12.2201C151.162 13.7957 152.179 14.3097 156.28 15.3712C161.092 16.6387 163.804 18.3858 163.804 22.565V22.6336C163.804 27.3955 160.212 30.0668 155.094 30.0668C151.501 30.0697 147.874 28.8022 145.027 26.232Z" fill="white"/>
<path d="M0.839844 43V38.05H1.62584V43H0.839844Z" fill="white"/>
<path d="M6.13227 43V38.05H6.91827L9.24027 41.683V38.05H10.0263V43H9.24027L6.91827 39.37V43H6.13227Z" fill="white"/>
<path d="M16.7352 43.096C16.3612 43.096 16.0122 43.031 15.6882 42.901C15.3642 42.769 15.0792 42.586 14.8332 42.352C14.5892 42.118 14.3982 41.846 14.2602 41.536C14.1222 41.224 14.0532 40.888 14.0532 40.528C14.0532 40.17 14.1222 39.835 14.2602 39.523C14.4002 39.211 14.5922 38.938 14.8362 38.704C15.0802 38.47 15.3632 38.288 15.6852 38.158C16.0092 38.026 16.3572 37.96 16.7292 37.96C17.0352 37.96 17.3252 38.004 17.5992 38.092C17.8732 38.18 18.1102 38.297 18.3102 38.443L17.9652 39.109C17.8152 38.989 17.6372 38.896 17.4312 38.83C17.2252 38.764 17.0082 38.731 16.7802 38.731C16.5102 38.731 16.2612 38.777 16.0332 38.869C15.8052 38.961 15.6062 39.089 15.4362 39.253C15.2682 39.415 15.1382 39.605 15.0462 39.823C14.9542 40.041 14.9082 40.276 14.9082 40.528C14.9082 40.78 14.9542 41.015 15.0462 41.233C15.1382 41.451 15.2682 41.642 15.4362 41.806C15.6062 41.968 15.8052 42.095 16.0332 42.187C16.2612 42.279 16.5102 42.325 16.7802 42.325C17.0082 42.325 17.2252 42.292 17.4312 42.226C17.6372 42.16 17.8152 42.067 17.9652 41.947L18.3102 42.613C18.1162 42.755 17.8822 42.871 17.6082 42.961C17.3362 43.051 17.0452 43.096 16.7352 43.096Z" fill="white"/>
<path d="M24.0089 43.096C23.4069 43.096 22.9529 42.94 22.6469 42.628C22.3409 42.316 22.1879 41.853 22.1879 41.239V38.05H22.9709V41.026C22.9709 41.476 23.0539 41.805 23.2199 42.013C23.3879 42.221 23.6509 42.325 24.0089 42.325C24.3669 42.325 24.6289 42.221 24.7949 42.013C24.9629 41.805 25.0469 41.476 25.0469 41.026V38.05H25.8329V41.239C25.8329 41.853 25.6799 42.316 25.3739 42.628C25.0679 42.94 24.6129 43.096 24.0089 43.096Z" fill="white"/>
<path d="M30.0165 43V38.05H31.3035C31.7815 38.05 32.1545 38.156 32.4225 38.368C32.6925 38.578 32.8275 38.888 32.8275 39.298C32.8275 39.822 32.6055 40.188 32.1615 40.396C32.5175 40.45 32.7905 40.584 32.9805 40.798C33.1705 41.01 33.2655 41.289 33.2655 41.635C33.2655 41.919 33.2015 42.163 33.0735 42.367C32.9455 42.571 32.7625 42.728 32.5245 42.838C32.2885 42.946 32.0075 43 31.6815 43H30.0165ZM30.8025 40.135H31.1295C31.4335 40.135 31.6665 40.071 31.8285 39.943C31.9905 39.815 32.0715 39.632 32.0715 39.394C32.0715 39.154 31.9915 38.972 31.8315 38.848C31.6715 38.724 31.4375 38.662 31.1295 38.662H30.8025V40.135ZM30.8025 42.382H31.4265C31.7605 42.382 32.0135 42.316 32.1855 42.184C32.3595 42.052 32.4465 41.861 32.4465 41.611C32.4465 41.357 32.3575 41.161 32.1795 41.023C32.0035 40.885 31.7525 40.816 31.4265 40.816H30.8025V42.382Z" fill="white"/>
<path d="M36.6959 43L38.6669 38.05H39.3959L41.3699 43H40.5239L40.0379 41.71H38.0279L37.5389 43H36.6959ZM38.2949 41.02H39.7709L39.0299 39.106L38.2949 41.02Z" fill="white"/>
<path d="M45.8411 43V38.749H44.4941V38.05H47.9741V38.749H46.6241V43H45.8411Z" fill="white"/>
<path d="M51.9493 43V38.05H52.7353V43H51.9493Z" fill="white"/>
<path d="M59.3957 43.096C59.0497 43.096 58.7257 43.03 58.4237 42.898C58.1217 42.766 57.8567 42.583 57.6287 42.349C57.4007 42.113 57.2217 41.84 57.0917 41.53C56.9637 41.218 56.8997 40.884 56.8997 40.528C56.8997 40.17 56.9637 39.836 57.0917 39.526C57.2217 39.216 57.4007 38.944 57.6287 38.71C57.8567 38.474 58.1217 38.29 58.4237 38.158C58.7257 38.026 59.0497 37.96 59.3957 37.96C59.7417 37.96 60.0657 38.026 60.3677 38.158C60.6697 38.29 60.9347 38.474 61.1627 38.71C61.3907 38.944 61.5687 39.216 61.6967 39.526C61.8267 39.836 61.8917 40.17 61.8917 40.528C61.8917 40.884 61.8267 41.218 61.6967 41.53C61.5687 41.84 61.3907 42.113 61.1627 42.349C60.9347 42.583 60.6697 42.766 60.3677 42.898C60.0657 43.03 59.7417 43.096 59.3957 43.096ZM59.3957 42.34C59.6317 42.34 59.8497 42.295 60.0497 42.205C60.2517 42.113 60.4267 41.986 60.5747 41.824C60.7247 41.66 60.8407 41.468 60.9227 41.248C61.0047 41.028 61.0457 40.788 61.0457 40.528C61.0457 40.268 61.0047 40.028 60.9227 39.808C60.8407 39.588 60.7247 39.397 60.5747 39.235C60.4267 39.071 60.2517 38.944 60.0497 38.854C59.8497 38.762 59.6317 38.716 59.3957 38.716C59.1617 38.716 58.9437 38.762 58.7417 38.854C58.5417 38.944 58.3667 39.071 58.2167 39.235C58.0687 39.397 57.9537 39.588 57.8717 39.808C57.7897 40.028 57.7487 40.268 57.7487 40.528C57.7487 40.788 57.7897 41.028 57.8717 41.248C57.9537 41.468 58.0687 41.66 58.2167 41.824C58.3667 41.986 58.5417 42.113 58.7417 42.205C58.9437 42.295 59.1617 42.34 59.3957 42.34Z" fill="white"/>
<path d="M66.0615 43V38.05H66.8475L69.1695 41.683V38.05H69.9555V43H69.1695L66.8475 39.37V43H66.0615Z" fill="white"/>
<path d="M80.3613 43.096C80.0613 43.096 79.7933 43.042 79.5573 42.934C79.3233 42.824 79.1383 42.669 79.0023 42.469C78.8683 42.267 78.8013 42.029 78.8013 41.755C78.8013 41.431 78.9003 41.148 79.0983 40.906C79.2983 40.664 79.5973 40.457 79.9953 40.285C79.8513 40.123 79.7363 39.979 79.6503 39.853C79.5643 39.725 79.5023 39.604 79.4643 39.49C79.4283 39.374 79.4103 39.256 79.4103 39.136C79.4103 38.89 79.4703 38.679 79.5903 38.503C79.7123 38.327 79.8753 38.192 80.0793 38.098C80.2853 38.004 80.5143 37.957 80.7663 37.957C80.9843 37.957 81.1763 37.99 81.3423 38.056C81.5103 38.12 81.6503 38.209 81.7623 38.323C81.8763 38.435 81.9623 38.562 82.0203 38.704C82.0783 38.844 82.1073 38.989 82.1073 39.139C82.1073 39.397 82.0213 39.626 81.8493 39.826C81.6773 40.024 81.4273 40.208 81.0993 40.378L82.1073 41.458C82.1573 41.416 82.2123 41.363 82.2723 41.299C82.3343 41.235 82.3963 41.169 82.4583 41.101C82.5223 41.031 82.5803 40.965 82.6323 40.903C82.6863 40.839 82.7293 40.788 82.7613 40.75L83.2503 41.203C83.1483 41.333 83.0383 41.468 82.9203 41.608C82.8023 41.746 82.6953 41.863 82.5993 41.959L83.5743 43H82.5903L82.0203 42.388C81.7823 42.614 81.5233 42.789 81.2433 42.913C80.9653 43.035 80.6713 43.096 80.3613 43.096ZM80.4633 42.352C80.6433 42.352 80.8223 42.31 81.0003 42.226C81.1803 42.14 81.3503 42.017 81.5103 41.857L80.4033 40.708C80.1733 40.806 79.9943 40.937 79.8663 41.101C79.7383 41.265 79.6743 41.446 79.6743 41.644C79.6743 41.794 79.7093 41.922 79.7793 42.028C79.8513 42.134 79.9473 42.215 80.0673 42.271C80.1873 42.325 80.3193 42.352 80.4633 42.352ZM80.6943 39.943C80.8503 39.861 80.9823 39.78 81.0903 39.7C81.2003 39.62 81.2823 39.534 81.3363 39.442C81.3923 39.35 81.4203 39.246 81.4203 39.13C81.4203 39.01 81.3923 38.904 81.3363 38.812C81.2823 38.72 81.2083 38.649 81.1143 38.599C81.0223 38.547 80.9183 38.521 80.8023 38.521C80.6843 38.521 80.5803 38.547 80.4903 38.599C80.4003 38.649 80.3293 38.719 80.2773 38.809C80.2253 38.899 80.1993 39.001 80.1993 39.115C80.1993 39.203 80.2153 39.288 80.2473 39.37C80.2813 39.452 80.3343 39.539 80.4063 39.631C80.4783 39.723 80.5743 39.827 80.6943 39.943Z" fill="white"/>
<path d="M92.2702 43V38.05H93.0562V43H92.2702Z" fill="white"/>
<path d="M97.5627 43V38.05H98.3487L100.671 41.683V38.05H101.457V43H100.671L98.3487 39.37V43H97.5627Z" fill="white"/>
<path d="M106.954 43L104.878 38.05H105.763L107.26 41.818L108.757 38.05H109.642L107.566 43H106.954Z" fill="white"/>
<path d="M113.579 43V38.05H116.24V38.74H114.365V40.174H116.168V40.864H114.365V42.31H116.24V43H113.579Z" fill="white"/>
<path d="M121.81 43.096C121.572 43.096 121.356 43.066 121.162 43.006C120.968 42.946 120.797 42.872 120.649 42.784C120.503 42.694 120.38 42.604 120.28 42.514C120.18 42.424 120.104 42.35 120.052 42.292L120.466 41.656C120.522 41.714 120.592 41.783 120.676 41.863C120.762 41.943 120.862 42.022 120.976 42.1C121.09 42.176 121.218 42.24 121.36 42.292C121.502 42.342 121.659 42.367 121.831 42.367C121.993 42.367 122.138 42.34 122.266 42.286C122.394 42.232 122.496 42.152 122.572 42.046C122.648 41.938 122.686 41.805 122.686 41.647C122.686 41.509 122.657 41.391 122.599 41.293C122.543 41.195 122.462 41.11 122.356 41.038C122.25 40.964 122.124 40.894 121.978 40.828C121.832 40.76 121.669 40.69 121.489 40.618C121.361 40.564 121.234 40.501 121.108 40.429C120.984 40.357 120.871 40.271 120.769 40.171C120.669 40.071 120.589 39.956 120.529 39.826C120.469 39.694 120.439 39.542 120.439 39.37C120.439 39.184 120.475 39.007 120.547 38.839C120.621 38.669 120.725 38.518 120.859 38.386C120.993 38.254 121.152 38.15 121.336 38.074C121.522 37.998 121.729 37.96 121.957 37.96C122.143 37.96 122.324 37.987 122.5 38.041C122.676 38.095 122.836 38.165 122.98 38.251C123.126 38.337 123.245 38.429 123.337 38.527L122.995 39.124C122.919 39.046 122.828 38.973 122.722 38.905C122.618 38.835 122.502 38.779 122.374 38.737C122.246 38.695 122.112 38.674 121.972 38.674C121.808 38.674 121.669 38.706 121.555 38.77C121.441 38.834 121.353 38.918 121.291 39.022C121.231 39.124 121.201 39.235 121.201 39.355C121.201 39.459 121.222 39.548 121.264 39.622C121.308 39.694 121.368 39.756 121.444 39.808C121.52 39.86 121.607 39.908 121.705 39.952C121.805 39.994 121.91 40.036 122.02 40.078C122.238 40.166 122.439 40.256 122.623 40.348C122.809 40.438 122.97 40.541 123.106 40.657C123.242 40.771 123.347 40.907 123.421 41.065C123.497 41.221 123.535 41.409 123.535 41.629C123.535 41.937 123.461 42.201 123.313 42.421C123.167 42.641 122.964 42.809 122.704 42.925C122.446 43.039 122.148 43.096 121.81 43.096Z" fill="white"/>
<path d="M128.229 43V38.749H126.882V38.05H130.362V38.749H129.012V43H128.229Z" fill="white"/>
<path d="M134.088 43L134.634 38.05H135.468L136.749 41.425L138.03 38.05H138.864L139.41 43H138.627L138.231 39.472L137.001 42.814H136.5L135.267 39.472L134.874 43H134.088Z" fill="white"/>
<path d="M143.667 43V38.05H146.328V38.74H144.453V40.174H146.256V40.864H144.453V42.31H146.328V43H143.667Z" fill="white"/>
<path d="M150.629 43V38.05H151.415L153.737 41.683V38.05H154.523V43H153.737L151.415 39.37V43H150.629Z" fill="white"/>
<path d="M159.559 43V38.749H158.212V38.05H161.692V38.749H160.342V43H159.559Z" fill="white"/>
</svg>
