<svg xmlns="http://www.w3.org/2000/svg" xmlns:xlink="http://www.w3.org/1999/xlink" version="1.1" width="232" height="56"
    style="scale:3.5" viewBox="0 0 1280 1024" xml:space="preserve">
    <defs>
    </defs>
    <g transform="matrix(1 0 0 1 640 512)" id="background-logo">
        <rect
            style="stroke: none; stroke-width: 0; stroke-dasharray: none; stroke-linecap: butt; stroke-dashoffset: 0; stroke-linejoin: miter; stroke-miterlimit: 4; fill: rgb(0,0,0); fill-opacity: 0; fill-rule: nonzero; opacity: 1;"
            paint-order="stroke" x="-640" y="-512" rx="0" ry="0" width="1280" height="1024" />
    </g>
    <g transform="matrix(1.421130068105168 0 0 1.421130068105168 217.29812499999997 512)" id="logo-logo">
        <g style="" paint-order="stroke">
            <g transform="matrix(2.349005660480042 0 0 2.349005660480042 0 0)">
                <path
                    style="stroke: none; stroke-width: 1; stroke-dasharray: none; stroke-linecap: butt; stroke-dashoffset: 0; stroke-linejoin: miter; stroke-miterlimit: 4; fill: rgb(0,0,0); fill-rule: nonzero; opacity: 1;"
                    paint-order="stroke" transform=" translate(-50, -49.99999867824172)"
                    d="M 68.4323502 20.3377056 C 67.5419007 19.7268772 66.5994187 19.1839332 65.6016465 18.720581 L 100 17.3183689 L 59.7659874 17.0487404 L 59.7663078 17.0495682 C 51.8737106 16.050714499999998 43.3167801 19.676744499999998 36.5267372 26.6043968 C 24.4741383 25.0844231 11.9965496 25.6369095 0 26.8455219 C 0.5410351 26.814283300000003 1.0863963 26.7845096 1.6311851 26.754608100000002 C 1.0891321 26.7953243 0.5515961999999999 26.8338794 0.001781400000000044 26.8784141 C 3.6372902000000003 32.5401954 7.1076383 38.0151214 10.423768 43.3028106 C 16.2832851 41.7567519 21.679065700000002 40.5918464 26.637452099999997 39.774757300000005 C 24.7019663 35.3649787 22.711703299999996 30.859386400000005 20.666726099999998 26.261224700000007 C 25.699166299999998 26.330253600000006 30.754447 26.603380200000007 35.7436876 27.192766100000007 C 35.7621393 27.25365250000001 35.7802057 27.31358330000001 35.7986574 27.374404800000008 C 36.9203005 31.076143200000008 38.026989900000004 34.741683900000005 39.117650000000005 38.367328500000006 C 39.996323600000004 38.319614300000005 40.860238 38.28506840000001 41.7095155 38.26317960000001 C 43.4080133 38.219474600000005 45.048104200000004 38.22685220000001 46.630810700000005 38.28277570000001 C 47.422131500000006 38.31077180000001 48.1991396 38.35085280000001 48.961956900000004 38.40276700000001 C 48.38065040000001 35.34188440000001 47.7967347 32.27349450000001 47.2105912 29.198871400000012 C 50.26440890000001 29.927017000000014 53.26160900000001 30.818795900000012 56.1811227 31.90035800000001 C 56.279355 32.95239620000001 56.3784112 34.01398070000001 56.47696010000001 35.069969000000015 C 56.57633680000001 36.134921900000016 56.67558760000001 37.19765450000001 56.775280900000006 38.266551800000016 C 56.81224530000001 38.66253260000001 56.84882830000001 39.054248600000015 56.8857927 39.45079790000002 C 59.1834726 39.91835010000002 61.3447504 40.51664720000002 63.3730592 41.23537430000002 C 63.3719796 40.74154650000002 63.3709611 40.26031480000002 63.3699426 39.76871480000002 C 63.3686075 39.164375200000016 63.367398200000004 38.56646340000002 63.3660592 37.96556080000002 C 63.3649148 37.43336860000002 63.363835200000004 36.89825050000002 63.3626908 36.36866750000002 C 63.3617982 35.931018700000024 63.3607796 35.48458850000002 63.3598908 35.04878220000002 C 64.5706643 35.67068090000002 65.7615899 36.335456700000016 66.9327935 37.04203400000002 C 67.35956660000001 37.299446000000025 67.7884988 37.552467200000024 68.2096719 37.82165130000002 C 68.5506829 38.03955440000002 68.88450710000001 38.27253330000002 69.2217569 38.49819930000002 C 69.1457986 39.33685290000002 69.067605 40.198284000000015 68.9904947 41.04896530000002 C 68.9720468 41.25274260000002 68.9535989 41.45557010000002 68.9350824 41.660045500000024 C 68.8768701 42.30223830000002 68.820054 42.92999260000003 68.7611398 43.57911670000002 C 69.8591165 44.15457140000002 70.9011697 44.791229100000024 71.9177102 45.45524590000002 C 71.9973 45.50716010000002 72.07561580000001 45.56040950000002 72.15463340000001 45.61289970000002 C 72.33519070000001 45.73276130000002 72.517785 45.85046000000002 72.69573290000001 45.97312160000002 C 72.70114210000001 45.90351860000002 72.708329 45.83340830000002 72.71329580000001 45.76399990000002 C 72.72105490000001 45.65488810000002 72.73422320000002 45.543998700000024 72.7408455 45.435333200000024 C 72.81394270000001 44.22856520000003 72.8083428 43.050617200000026 72.7374733 41.902442900000025 C 72.73027880000001 41.78678130000002 72.71952900000001 41.67296220000002 72.71093830000001 41.55793380000002 C 72.69694600000001 41.369869200000025 72.68536460000001 41.180599200000024 72.66754990000001 40.99431610000002 C 72.6648796 40.96587750000002 72.6637352 40.93673710000002 72.66093520000001 40.90829850000002 C 72.65654070000001 40.86363600000002 72.6551445 40.81751250000002 72.65049820000002 40.77297590000002 C 72.55341420000002 39.83596420000002 72.40562520000002 38.92465210000002 72.21596600000001 38.03847120000002 C 72.19204780000001 37.92687990000002 72.1678093 37.81560510000002 72.14248730000001 37.70477670000002 C 71.86210710000002 36.47847740000002 71.49195930000002 35.30816640000002 71.04355690000001 34.198421400000015 C 71.00150370000001 34.09427250000002 70.96453930000001 33.98611440000001 70.92108220000001 33.88311380000002 C 70.39690460000001 32.641479400000016 69.77036350000002 31.48134800000002 69.05036230000002 30.416456200000017 C 68.97764650000002 30.308872200000017 68.89754550000002 30.208986300000017 68.82291480000002 30.103374500000015 C 67.91752690000003 28.821979500000015 66.87954780000003 27.679214500000015 65.71387550000001 26.712362300000017 C 65.57836220000002 26.600008000000017 65.43540260000002 26.498468400000018 65.29658580000002 26.390693700000018 C 63.354164800000014 24.882169800000018 61.09662700000002 23.832355500000016 58.594403000000014 23.344253600000016 C 54.56419060000002 22.558149400000016 49.90819620000001 23.222992000000016 44.924298000000014 25.807415100000014 C 49.05433340000001 22.734636400000014 54.54205010000001 21.275673000000015 59.643135700000016 22.055988400000015 C 60.54013120000002 22.193218300000016 61.423893600000014 22.397888300000016 62.28736180000001 22.678140700000014 C 62.87592380000002 22.869194100000016 63.452332200000015 23.098039700000015 64.01786110000002 23.358251600000013 C 65.13523930000002 23.87250140000001 66.20789410000002 24.507249900000012 67.20032570000002 25.304933600000012 C 67.57733990000003 25.621004200000012 67.93673770000002 25.94776350000001 68.28519510000002 26.280820900000013 C 68.53032750000003 26.515073800000014 68.75987310000002 26.758234100000013 68.99106670000002 27.000440700000013 C 69.89741590000001 27.950050500000014 70.70369030000002 28.955457800000012 71.40288620000001 30.014242300000014 C 71.56308820000001 30.256830300000015 71.71450120000002 30.503616500000014 71.86420520000001 30.751230400000015 C 72.45785600000002 31.733478700000013 72.97624290000002 32.75110260000002 73.40943990000001 33.80295200000001 C 73.51841820000001 34.067550800000014 73.61474690000001 34.33705160000001 73.71392900000001 34.60546890000001 C 74.0783547 35.59204500000001 74.38004380000001 36.60158550000001 74.61569290000001 37.63123340000001 C 74.68364790000001 37.927833700000015 74.74331740000001 38.22653600000001 74.80089650000001 38.52600120000001 C 74.9883889 39.50156810000001 75.1217431 40.49087930000001 75.20298090000001 41.49055880000001 C 75.22970670000001 41.81980150000001 75.25706570000001 42.14884970000001 75.27265250000002 42.47993490000001 C 75.31788720000002 43.43927790000001 75.31928340000002 44.40523930000001 75.27417840000003 45.37419150000001 C 75.25769890000002 45.72805430000001 75.22900480000003 46.082294700000006 75.20088280000003 46.43653890000001 C 75.12568750000003 47.38411350000001 75.00837030000002 48.33181780000001 74.85293660000004 49.27703880000001 C 74.79326710000004 49.639805100000004 74.72875290000003 50.0018122 74.65768510000004 50.36336920000001 C 74.47102430000004 51.31355310000001 74.24720080000004 52.25845740000001 73.98501660000004 53.19445060000001 C 73.88990860000004 53.53393580000001 73.79281690000003 53.87290980000001 73.68822550000004 54.209720800000014 C 73.38214180000004 55.194767200000015 73.03617170000004 56.167473000000015 72.65209270000004 57.123062300000015 C 72.53929210000004 57.40363330000002 72.41841200000005 57.68006910000002 72.29924850000003 57.95751970000001 C 71.84423140000003 59.016624600000014 71.34511640000004 60.05237600000001 70.80103380000003 61.057083300000016 C 69.29804310000003 63.83243200000002 67.47389300000003 66.37607590000002 65.39780500000003 68.52971670000002 C 61.351811200000036 72.84050010000003 55.98154140000003 76.11705800000003 50.08588860000003 76.94223040000003 C 48.132462200000035 77.17336290000003 46.162430500000035 77.12106340000003 44.263718300000036 76.75263230000003 C 54.737492300000035 77.06953450000003 63.25930470000004 70.05841080000003 68.17175360000005 61.08367550000003 C 68.18549410000004 61.058483200000026 68.19917360000005 61.03309640000003 68.21292180000005 61.00783930000003 C 68.24459900000005 60.94962700000003 68.27628390000005 60.89147580000003 68.30764840000005 60.83313760000003 C 68.31789470000005 60.81411370000003 68.32826300000005 60.79521950000003 68.33844060000004 60.77626050000003 C 67.95843570000004 60.802978600000024 67.58071200000005 60.824230300000025 67.18969790000004 60.87633530000003 C 67.30313170000004 59.62993260000003 67.41326200000005 58.41794600000003 67.52447570000004 57.19514480000003 C 67.56118070000004 56.79185120000003 67.59846560000004 56.38181320000003 67.63491880000004 55.98106400000003 C 67.66921290000003 55.60404220000003 67.70477350000003 55.21360030000003 67.73881590000003 54.83880630000003 C 66.71915500000003 54.70940030000003 65.64739290000003 54.66919340000003 64.55036990000004 54.67396560000003 C 64.16775580000004 54.67561740000003 63.79359500000003 54.662384200000034 63.40168830000003 54.68077100000003 C 63.40353460000003 55.52915970000003 63.40537710000003 56.39809810000003 63.40715860000003 57.25304040000003 C 63.40989760000003 58.542263100000035 63.412693700000034 59.827411700000035 63.41543270000003 61.131710100000035 C 63.41587520000003 61.33141710000003 63.416256700000034 61.52558900000003 63.416703000000034 61.72567750000003 C 63.29175260000003 61.76448820000003 63.15948180000004 61.820156100000034 63.03351280000003 61.86125570000003 C 61.717060800000034 62.26957710000003 60.408310600000036 62.78141030000003 59.111962000000034 63.37989430000003 C 59.04350730000004 62.642334000000034 58.975685800000036 61.91297920000003 58.90735690000003 61.17726520000003 C 58.78774710000003 59.88925170000003 58.66839660000003 58.60365680000003 58.54923310000003 57.32130820000003 C 58.48777450000003 56.659645100000034 58.42580860000003 55.99181370000003 58.36441480000003 55.331615500000034 C 56.80480250000003 55.651760200000034 55.17240960000003 56.09564600000003 53.476582200000024 56.653919300000034 C 53.324593200000024 56.70392620000003 53.171963400000024 56.75501640000003 53.018891000000025 56.80705650000004 C 52.83808200000003 56.86845020000004 52.66064130000002 56.92380150000004 52.478367500000026 56.98793040000004 C 52.60923450000003 57.68223200000004 52.738766400000024 58.37239470000004 52.869381600000025 59.06592950000004 C 53.00565780000002 59.78955850000004 53.141300900000026 60.51121150000004 53.27732150000003 61.23414240000004 C 53.580986700000025 62.84789290000004 53.885731400000026 64.46476760000004 54.18806140000003 66.07450880000003 C 52.26192540000003 67.28534710000004 50.38026490000003 68.64213580000003 48.56139820000003 70.08207720000003 C 47.57304070000003 66.72904220000002 46.57138890000003 63.34172080000003 45.55592790000003 59.919025600000026 C 42.96272720000003 61.18922440000003 40.229176200000026 62.708755700000026 37.35966940000003 64.49154680000002 C 38.99009010000003 68.29374710000002 40.58030390000003 72.02214070000002 42.13196250000003 75.67794820000002 C 41.65804740000003 76.12450430000001 41.19303960000003 76.57061790000002 40.73382250000003 77.01570910000002 C 39.69163960000003 78.01786820000002 38.63107360000003 79.07519550000002 37.55517640000003 80.18009970000003 C 37.42176120000003 80.31612420000003 37.28796830000003 80.45227070000003 37.15626970000003 80.58715080000003 C 36.30826250000003 81.45590230000003 35.495373400000034 82.30117060000003 34.724220900000034 83.10718560000004 C 34.72212280000004 83.10941340000004 34.71983020000003 83.11170980000004 34.717732100000035 83.11393000000004 C 34.720085800000035 83.11221340000004 34.722439400000034 83.10986350000005 34.724793100000035 83.10814690000004 C 34.79280530000003 83.05934930000004 34.85890640000004 82.99432400000003 34.926537200000034 82.94253560000004 C 35.750305800000035 82.31172960000004 36.55320420000003 81.49031850000004 37.371754300000035 80.69307730000004 C 37.388298600000034 80.70058460000004 37.40388550000004 80.70955680000004 37.42049090000003 80.71706410000004 C 50.11744370000003 86.43846150000005 66.50532600000003 77.63455220000004 74.39041200000003 61.020820800000045 L 79.40873020000002 60.97011200000004 L 75.21086950000003 59.19132630000004 C 75.50804970000003 58.48742310000004 75.79148170000003 57.78224200000004 76.04914920000003 57.07534810000004 L 81.28065550000004 57.00180070000004 L 76.65545710000004 55.30088820000004 C 76.88487300000004 54.57910550000004 77.08718930000003 53.85738390000004 77.27633720000003 53.13617340000004 L 83.08483180000003 53.03342450000004 L 77.70845090000003 51.32996760000004 C 77.86216030000003 50.620781000000036 77.99958100000003 49.91331490000004 78.11499080000003 49.20838940000004 L 84.92291320000002 49.065113200000035 L 78.38723050000003 47.29803480000003 C 78.46516480000003 46.626194100000035 78.51968440000003 45.95912570000003 78.56295070000003 45.29472750000003 L 86.76092590000003 45.09674090000003 L 78.64075530000004 43.24714300000003 C 78.64826260000004 42.62613700000003 78.64279230000004 42.009266100000026 78.61995760000003 41.39818210000003 L 88.59900730000004 41.128429600000025 L 78.47280190000004 39.218517500000026 C 78.41642830000004 38.647007200000026 78.34447550000003 38.08243580000003 78.26094120000003 37.52294940000002 L 90.47094030000004 37.160053400000024 L 77.84243840000003 35.23487490000002 C 77.72467870000004 34.70688270000002 77.59374300000003 34.186207000000024 77.45072240000003 33.67271820000002 L 92.37677830000003 33.19174210000002 L 76.68676060000003 31.32503140000002 C 76.50085510000002 30.825666500000022 76.30560370000003 30.332985000000022 76.09406350000003 29.85207190000002 L 94.28254770000004 29.22336590000002 L 74.92349310000003 27.52181640000002 C 74.64089270000002 27.02385340000002 74.34187380000003 26.54033100000002 74.02853460000003 26.06966030000002 L 96.18838570000003 25.25505460000002 L 72.34130170000003 23.84902590000002 C 71.88755110000002 23.32306880000002 71.41332320000004 22.818742900000018 70.91345290000002 22.343237100000017 L 98.12807540000003 21.286680400000016 L 68.4323502 20.3377056 z M 29.200243 53.7115021 C 28.3885632 54.037307799999994 27.5626316 54.3808594 26.725694700000002 54.7382851 C 25.888692900000002 55.0957108 25.0406857 55.4670029 24.184724900000003 55.8484116 C 23.744403900000002 56.0445557 23.313814300000004 56.2284851 22.867574800000003 56.4321366 C 21.777107300000004 56.9299088 20.669016000000003 57.4500123 19.543300700000003 57.9928933 C 22.256939000000003 62.4083367 24.860956300000005 66.6859742 27.369669000000002 70.8380891 C 27.4452515 70.9863893 27.527576500000002 71.12915050000001 27.605766300000003 71.2752916 C 27.6013775 71.2502214 27.5945053 71.22693650000001 27.590244300000002 71.20174420000001 C 31.010776500000002 68.642769 34.2695847 66.41119400000001 37.3596687 64.49154680000001 C 35.6867485 60.59022920000001 33.9705619 56.60900510000001 32.2093353 52.54723380000001 C 31.2237167 52.9138832 30.2207279 53.3018456 29.200243 53.7115021 z M 42.4043884 49.3320694 C 41.3242264 45.7159004 40.228729200000004 42.0609245 39.1176491 38.3673286 C 37.195015 38.4715423 35.1949539 38.6387367 33.1155586 38.8722267 C 31.4181423 39.0628357 29.653799 39.3095589 27.8496265 39.5902557 C 27.4435958 39.6534347 27.048954 39.7069397 26.6374511 39.7747573 C 26.8336601 40.2217597 27.0231246 40.656993799999995 27.2182502 41.102153699999995 C 28.9200553 44.984382599999996 30.5873775 48.80655659999999 32.2093353 52.5472335 C 34.0159874 51.8750114 35.768692 51.272644 37.4677582 50.7375907 C 39.1668282 50.2025337 40.8122635 49.7348557 42.4043884 49.3320694 z M 46.693222 48.3765411 C 45.3054504 48.6419067 43.875946 48.9596939 42.4043884 49.332069399999995 C 43.469471 52.89797589999999 44.5199203 56.42698289999999 45.5559272 59.919025399999995 C 46.1616019 59.622360199999996 46.7600898 59.3390541 47.351448 59.068855299999996 C 48.5341033 58.52851869999999 49.688064499999996 58.040863099999996 50.8129539 57.604423499999996 C 51.3753623 57.386199899999994 51.9305229 57.180766999999996 52.478366799999996 56.987930299999995 C 51.8983955 53.911209099999994 51.3160057 50.8272972 50.7311973 47.736259499999996 C 49.426899 47.8984299 48.0809288 48.1112404 46.693222 48.3765411 z M 54.0169182 47.4313202 C 54.1022988 47.4260407 54.1906052 47.4169426 54.275600499999996 47.4121094 C 54.3102112 47.4101372 54.3435479 47.4098816 54.3780976 47.4080353 C 54.53314219999999 47.3995095 54.683349699999994 47.396965 54.8371888 47.3899689 C 54.9297562 47.3857689 55.02137 47.3827133 55.113495 47.3790245 C 55.9660188 47.3452415 56.8058816 47.3272362 57.6208726 47.340023 C 57.5729638 46.8256454 57.525501399999996 46.3173751 57.477722299999996 45.803955 C 57.44934859999999 45.4995269 57.4212266 45.197326600000004 57.3929178 44.893280000000004 C 57.3022539 43.9203186 57.2117845 42.9490776 57.12138 41.979427300000005 C 57.107639500000005 41.832271500000004 57.093895100000005 41.684349000000005 57.080219400000004 41.5372581 C 57.0155145 40.8432769 56.9503671 40.143127400000004 56.8857919 39.450798000000006 C 56.6353151 39.399837500000004 56.3752939 39.35714720000001 56.1212541 39.30924220000001 C 55.9457857 39.27615730000001 55.7703821 39.243076300000006 55.593197 39.21145630000001 C 55.395145500000005 39.17608260000001 55.202881000000005 39.13568500000001 55.002666600000005 39.10215380000001 C 53.72572340000001 38.88851550000001 52.405517700000004 38.71279150000001 51.04129040000001 38.57677080000001 C 50.35920730000001 38.508758600000014 49.66611490000001 38.450672200000014 48.96195610000001 38.402767200000014 C 49.55414210000001 41.521099100000015 50.14390950000001 44.63230520000001 50.731197400000006 47.73625950000002 C 51.8560219 47.5963554 52.9491005 47.4978065 54.0169182 47.4313202 z M 63.3989525 53.381752 C 63.3968544 52.389389 63.3947525 51.407077799999996 63.3926544 50.4236183 C 63.3920173 50.1225624 63.391380299999994 49.818454700000004 63.390743199999996 49.5182876 C 63.38953779999999 48.966503100000004 63.38832849999999 48.4030074 63.3871841 47.8540191 C 61.5721321 47.546092900000005 59.650196 47.3717727 57.6208725 47.340023 C 57.6515999 47.6702194 57.6826477 48.0046119 57.7134399 48.3351898 C 57.753585799999996 48.7670479 57.7941742 49.202728300000004 57.8344459 49.6352234 C 57.9051322 50.3947334 57.9760055 51.156662000000004 58.0468139 51.9181442 C 58.095104199999994 52.4370422 58.1431999 52.954025200000004 58.191554999999994 53.4738769 C 58.249320999999995 54.0946273 58.30657959999999 54.709526000000004 58.36441419999999 55.331615400000004 C 60.12551119999999 54.9701194 61.80511469999999 54.7555885 63.40168759999999 54.680770800000005 C 63.401306099999985 54.51440040000001 63.40098949999999 54.3529319 63.40066909999999 54.186817100000006 C 63.4000969 53.9160423 63.3995247 53.651825 63.3989525 53.381752 z M 63.3773193 43.2398262 C 63.37903970000001 44.0437431 63.3807563 44.85135270000001 63.382473000000005 45.661377 C 63.38330080000001 46.0394783 63.384063700000006 46.412300200000004 63.3848915 46.7917366 C 63.3856544 47.1482697 63.3864174 47.4962769 63.3871841 47.8540192 C 65.0999298 48.144516 66.7248153 48.555126200000004 68.2620315 49.079303800000005 C 68.28417200000001 48.83518610000001 68.3054199 48.600998000000004 68.3274993 48.35777290000001 C 68.4138335 47.40670020000001 68.4985732 46.47229390000001 68.5835723 45.53572470000001 C 68.6096572 45.24796680000001 68.6363143 44.95505530000001 68.6622771 44.66869740000001 C 68.694908 44.30879220000001 68.728691 43.936859200000015 68.7611388 43.57911690000002 C 67.48738089999999 42.911415200000015 66.133644 42.32196430000002 64.7392577 41.77348340000002 C 64.2836684 41.59426130000002 63.841693799999994 41.40142830000002 63.373058199999996 41.235374600000014 C 63.3734397 41.42509480000001 63.373886 41.620346200000014 63.374267499999995 41.810383000000016 C 63.3752861 42.2828369 63.3763046 42.765274 63.3773193 43.2398262 z M 71.3673859 53.3562393 C 71.3785859 53.3175583 71.3888245 53.2788772 71.3999634 53.2401962 C 71.64260870000001 52.3937149 71.8551102 51.5442428 72.03394320000001 50.6940727 C 71.09044650000001 50.2086448 70.10558320000001 49.780727399999996 69.08827970000002 49.3983612 C 68.81127160000001 49.294277199999996 68.54450990000001 49.175624799999994 68.26203150000002 49.0793037 C 68.25198360000002 49.189941399999995 68.24148550000002 49.3055381 68.23143000000002 49.416366499999995 C 68.15088650000001 50.30305849999999 68.06811520000002 51.2134132 67.98642730000002 52.1129531 C 67.95035550000001 52.5097579 67.91472630000001 52.9031295 67.87839510000002 53.3024787 C 67.83157350000002 53.8182563 67.78607940000002 54.3188285 67.73881530000001 54.8388061 C 68.76419830000002 54.968975 69.74179840000001 55.1858596 70.69351200000001 55.448299399999996 C 70.9392166 54.7546997 71.1639862 54.0570908 71.3673859 53.3562393 z"
                    stroke-linecap="round" />
            </g>
        </g>
    </g>
    <g transform="matrix(1.9211538461538462 0 0 1.9211538461538462 825.3239744403543 472.4416142930935)" id="text-logo">
        <g style="" paint-order="stroke">
            <g transform="matrix(1 0 0 1 5.684342e-14 0)" id="text-logo-path-0">
                <path
                    style="stroke: none; stroke-width: 0; stroke-dasharray: none; stroke-linecap: butt; stroke-dashoffset: 0; stroke-linejoin: miter; stroke-miterlimit: 4; fill: rgb(0,0,0); fill-rule: nonzero; opacity: 1;"
                    paint-order="stroke" transform=" translate(-208.95000000000002, 16.915000000000003)"
                    d="M 1.46 -23.04 L 1.46 -23.04 L 1.46 -24.5 Q 1.46 -29.64 3.79 -31.98 Q 6.13 -34.31 11.27 -34.31 L 11.27 -34.31 L 28.47 -34.31 L 28.47 -27.44 L 13.23 -27.44 Q 10.29 -27.44 10.29 -24.5 L 10.29 -24.5 L 10.29 -23.52 Q 10.29 -20.58 13.23 -20.58 L 13.23 -20.58 L 22.06 -20.58 Q 26.87 -20.58 29.12 -18.33 Q 31.37 -16.08 31.37 -11.27 L 31.37 -11.27 L 31.37 -8.83 Q 31.37 -4.02 29.11 -1.77 Q 26.84 0.48 22.06 0.48 L 22.06 0.48 Q 19.57 0.48 16.75 0.38 L 16.75 0.38 L 12.25 0.19 Q 7.25 -0.05 1.91 -0.48 L 1.91 -0.48 L 1.91 -7.11 Q 15.34 -6.36 20.1 -6.36 L 20.1 -6.36 Q 21.22 -6.36 21.88 -7.03 Q 22.54 -7.7 22.54 -8.83 L 22.54 -8.83 L 22.54 -13.23 L 11.27 -13.23 Q 6.13 -13.23 3.79 -15.56 Q 1.46 -17.9 1.46 -23.04 Z M 54.4 0 L 45.57 0 L 45.57 -34.31 L 66.15 -34.31 Q 71.29 -34.31 73.62 -31.98 Q 75.95 -29.64 75.95 -24.5 L 75.95 -24.5 L 75.95 -19.6 Q 75.95 -14.45 73.62 -12.13 Q 71.29 -9.81 66.15 -9.81 L 66.15 -9.81 L 54.4 -9.81 L 54.4 0 Z M 54.4 -27.44 L 54.4 -16.65 L 64.18 -16.65 Q 67.13 -16.65 67.13 -19.6 L 67.13 -19.6 L 67.13 -24.5 Q 67.13 -27.44 64.18 -27.44 L 64.18 -27.44 L 54.4 -27.44 Z M 117.36 0 L 90.16 0 L 90.16 -34.31 L 117.36 -34.31 L 117.36 -27.44 L 98.99 -27.44 L 98.99 -20.82 L 113.44 -20.82 L 113.44 -13.97 L 98.99 -13.97 L 98.99 -6.87 L 117.36 -6.87 L 117.36 0 Z M 158.26 0 L 131.06 0 L 131.06 -34.31 L 158.26 -34.31 L 158.26 -27.44 L 139.89 -27.44 L 139.89 -20.82 L 154.34 -20.82 L 154.34 -13.97 L 139.89 -13.97 L 139.89 -6.87 L 158.26 -6.87 L 158.26 0 Z M 191.08 0 L 171.96 0 L 171.96 -34.31 L 191.08 -34.31 Q 196.61 -34.31 199.48 -31.44 Q 202.35 -28.57 202.35 -23.04 L 202.35 -23.04 L 202.35 -11.27 Q 202.35 -5.74 199.48 -2.87 Q 196.61 0 191.08 0 L 191.08 0 Z M 180.79 -27.44 L 180.79 -6.87 L 189.12 -6.87 Q 193.52 -6.87 193.52 -11.27 L 193.52 -11.27 L 193.52 -23.04 Q 193.52 -27.44 189.12 -27.44 L 189.12 -27.44 L 180.79 -27.44 Z M 225.6 0 L 212.63 -34.31 L 222.17 -34.31 L 230.5 -10.29 L 238.83 -34.31 L 248.4 -34.31 L 235.41 0 L 225.6 0 Z M 287.84 0 L 260.64 0 L 260.64 -34.31 L 287.84 -34.31 L 287.84 -27.44 L 269.47 -27.44 L 269.47 -20.82 L 283.92 -20.82 L 283.92 -13.97 L 269.47 -13.97 L 269.47 -6.87 L 287.84 -6.87 L 287.84 0 Z M 310.37 0 L 301.54 0 L 301.54 -34.31 L 322.12 -34.31 Q 327.26 -34.31 329.59 -31.98 Q 331.93 -29.64 331.93 -24.5 L 331.93 -24.5 L 331.93 -20.1 Q 331.93 -16.03 330.58 -13.77 Q 329.22 -11.51 326.28 -10.79 L 326.28 -10.79 L 332.41 0 L 322.86 0 L 317.21 -10.29 L 310.37 -10.29 L 310.37 0 Z M 310.37 -27.44 L 310.37 -17.15 L 320.16 -17.15 Q 323.1 -17.15 323.1 -20.1 L 323.1 -20.1 L 323.1 -24.5 Q 323.1 -27.44 320.16 -27.44 L 320.16 -27.44 L 310.37 -27.44 Z M 345.12 -23.04 L 345.12 -23.04 L 345.12 -24.5 Q 345.12 -29.64 347.46 -31.98 Q 349.79 -34.31 354.93 -34.31 L 354.93 -34.31 L 372.14 -34.31 L 372.14 -27.44 L 356.9 -27.44 Q 353.95 -27.44 353.95 -24.5 L 353.95 -24.5 L 353.95 -23.52 Q 353.95 -20.58 356.9 -20.58 L 356.9 -20.58 L 365.72 -20.58 Q 370.53 -20.58 372.78 -18.33 Q 375.03 -16.08 375.03 -11.27 L 375.03 -11.27 L 375.03 -8.83 Q 375.03 -4.02 372.77 -1.77 Q 370.51 0.48 365.72 0.48 L 365.72 0.48 Q 363.24 0.48 360.41 0.38 L 360.41 0.38 L 355.92 0.19 Q 350.91 -0.05 345.58 -0.48 L 345.58 -0.48 L 345.58 -7.11 Q 359 -6.36 363.76 -6.36 L 363.76 -6.36 Q 364.89 -6.36 365.55 -7.03 Q 366.2 -7.7 366.2 -8.83 L 366.2 -8.83 L 366.2 -13.23 L 354.93 -13.23 Q 349.79 -13.23 347.46 -15.56 Q 345.12 -17.9 345.12 -23.04 Z M 416.44 0 L 389.23 0 L 389.23 -34.31 L 416.44 -34.31 L 416.44 -27.44 L 398.06 -27.44 L 398.06 -20.82 L 412.51 -20.82 L 412.51 -13.97 L 398.06 -13.97 L 398.06 -6.87 L 416.44 -6.87 L 416.44 0 Z"
                    stroke-linecap="round" />
            </g>
        </g>
    </g>
    <g transform="matrix(1.9211538461538462 0 0 1.9211538461538462 825.6177746765236 569.207850703973)"
        id="tagline-a0495072-8035-435f-bb4e-5f33450919cf-logo">
        <g style="" paint-order="stroke">
            <g transform="matrix(1 0 0 1 5.684342e-14 0)" id="tagline-a0495072-8035-435f-bb4e-5f33450919cf-logo-path-0">
                <path
                    style="stroke: none; stroke-width: 0; stroke-dasharray: none; stroke-linecap: butt; stroke-dashoffset: 0; stroke-linejoin: miter; stroke-miterlimit: 4; fill: rgb(170,170,170); fill-rule: nonzero; opacity: 1;"
                    paint-order="stroke" transform=" translate(-206.52, 8.005)"
                    d="M 4.34 0 L 2.05 0 L 2.05 -16.01 L 10.82 -16.01 Q 14.71 -16.01 14.71 -12.12 L 14.71 -12.12 L 14.71 -10.3 Q 14.71 -6.95 11.85 -6.48 L 11.85 -6.48 L 14.86 0 L 12.33 0 L 9.36 -6.4 L 4.34 -6.4 L 4.34 0 Z M 4.34 -13.72 L 4.34 -8.69 L 10.7 -8.69 Q 11.61 -8.69 12.01 -9.09 Q 12.42 -9.49 12.42 -10.41 L 12.42 -10.41 L 12.42 -12 Q 12.42 -12.92 12.01 -13.32 Q 11.61 -13.72 10.7 -13.72 L 10.7 -13.72 L 4.34 -13.72 Z M 33.16 0 L 30.87 0 L 37.05 -16.01 L 39.34 -16.01 L 45.51 0 L 43.22 0 L 41.8 -3.68 L 34.58 -3.68 L 33.16 0 Z M 38.2 -13.03 L 35.45 -5.97 L 40.92 -5.97 L 38.2 -13.03 Z M 61.98 -2.29 L 61.98 -2.29 L 61.98 -13.72 Q 61.98 -14.19 62.16 -14.61 Q 62.34 -15.03 62.65 -15.34 Q 62.96 -15.64 63.38 -15.83 Q 63.8 -16.01 64.27 -16.01 L 64.27 -16.01 L 72.96 -16.01 Q 73.42 -16.01 73.84 -15.83 Q 74.26 -15.64 74.57 -15.34 Q 74.89 -15.03 75.07 -14.61 Q 75.24 -14.19 75.24 -13.72 L 75.24 -13.72 L 75.24 -11.66 L 72.96 -11.66 L 72.96 -13.72 L 64.27 -13.72 L 64.27 -2.29 L 72.96 -2.29 L 72.96 -4.34 L 75.24 -4.34 L 75.24 -2.29 Q 75.24 -1.82 75.07 -1.4 Q 74.89 -0.98 74.57 -0.67 Q 74.26 -0.36 73.84 -0.18 Q 73.42 0 72.96 0 L 72.96 0 L 64.27 0 Q 63.8 0 63.38 -0.18 Q 62.96 -0.36 62.65 -0.67 Q 62.34 -0.98 62.16 -1.4 Q 61.98 -1.82 61.98 -2.29 Z M 94.92 0 L 92.63 0 L 92.63 -16.01 L 94.92 -16.01 L 94.92 0 Z M 115.04 0 L 112.75 0 L 112.75 -16.01 L 115.04 -16.01 L 124.66 -3.6 L 124.66 -16.01 L 126.95 -16.01 L 126.95 0 L 124.66 0 L 115.04 -12.42 L 115.04 0 Z M 144.78 -2.29 L 144.78 -2.29 L 144.78 -13.72 Q 144.78 -14.19 144.96 -14.61 Q 145.14 -15.03 145.45 -15.34 Q 145.76 -15.64 146.18 -15.83 Q 146.6 -16.01 147.07 -16.01 L 147.07 -16.01 L 155.76 -16.01 Q 156.23 -16.01 156.65 -15.83 Q 157.06 -15.64 157.38 -15.34 Q 157.69 -15.03 157.87 -14.61 Q 158.05 -14.19 158.05 -13.72 L 158.05 -13.72 L 158.05 -11.66 L 155.76 -11.66 L 155.76 -13.72 L 147.07 -13.72 L 147.07 -2.29 L 155.76 -2.29 L 155.76 -6.17 L 151.41 -6.17 L 151.41 -8.46 L 158.05 -8.46 L 158.05 -2.29 Q 158.05 -1.82 157.87 -1.4 Q 157.69 -0.98 157.38 -0.67 Q 157.06 -0.36 156.65 -0.18 Q 156.23 0 155.76 0 L 155.76 0 L 147.07 0 Q 146.6 0 146.18 -0.18 Q 145.76 -0.36 145.45 -0.67 Q 145.14 -0.98 144.96 -1.4 Q 144.78 -1.82 144.78 -2.29 Z M 196.45 -2.29 L 196.45 -2.29 L 196.45 -16.01 L 198.74 -16.01 L 198.74 -2.29 L 207.89 -2.29 L 207.89 -16.01 L 210.18 -16.01 L 210.18 -2.29 Q 210.18 -1.82 210 -1.4 Q 209.82 -0.98 209.51 -0.67 Q 209.19 -0.36 208.78 -0.18 Q 208.36 0 207.89 0 L 207.89 0 L 198.74 0 Q 198.27 0 197.86 -0.18 Q 197.44 -0.36 197.12 -0.67 Q 196.81 -0.98 196.63 -1.4 Q 196.45 -1.82 196.45 -2.29 Z M 230.3 0 L 228.01 0 L 228.01 -16.01 L 230.3 -16.01 L 239.92 -3.6 L 239.92 -16.01 L 242.21 -16.01 L 242.21 0 L 239.92 0 L 230.3 -12.42 L 230.3 0 Z M 262.33 0 L 260.04 0 L 260.04 -16.01 L 262.33 -16.01 L 262.33 0 Z M 284.96 0 L 278.79 -16.01 L 281.24 -16.01 L 286.22 -2.84 L 291.21 -16.01 L 293.66 -16.01 L 287.49 0 L 284.96 0 Z M 321.79 0 L 310.12 0 L 310.12 -16.01 L 321.79 -16.01 L 321.79 -13.72 L 312.41 -13.72 L 312.41 -9.15 L 320.41 -9.15 L 320.41 -6.86 L 312.41 -6.86 L 312.41 -2.29 L 321.79 -2.29 L 321.79 0 Z M 341.22 0 L 338.93 0 L 338.93 -16.01 L 347.7 -16.01 Q 351.59 -16.01 351.59 -12.12 L 351.59 -12.12 L 351.59 -10.3 Q 351.59 -6.95 348.73 -6.48 L 348.73 -6.48 L 351.74 0 L 349.21 0 L 346.24 -6.4 L 341.22 -6.4 L 341.22 0 Z M 341.22 -13.72 L 341.22 -8.69 L 347.58 -8.69 Q 348.49 -8.69 348.89 -9.09 Q 349.3 -9.49 349.3 -10.41 L 349.3 -10.41 L 349.3 -12 Q 349.3 -12.92 348.89 -13.32 Q 348.49 -13.72 347.58 -13.72 L 347.58 -13.72 L 341.22 -13.72 Z M 368.9 -2.29 L 368.9 -2.29 L 368.9 -4.34 L 371.19 -4.34 L 371.19 -2.29 L 379.19 -2.29 L 379.19 -6.86 L 371.41 -6.86 Q 370.95 -6.86 370.53 -7.04 Q 370.11 -7.22 369.8 -7.53 Q 369.48 -7.84 369.3 -8.26 Q 369.13 -8.68 369.13 -9.15 L 369.13 -9.15 L 369.13 -13.72 Q 369.13 -14.19 369.3 -14.61 Q 369.48 -15.03 369.8 -15.34 Q 370.11 -15.64 370.53 -15.83 Q 370.95 -16.01 371.41 -16.01 L 371.41 -16.01 L 379.19 -16.01 Q 379.66 -16.01 380.07 -15.83 Q 380.49 -15.64 380.81 -15.34 Q 381.12 -15.03 381.3 -14.61 Q 381.48 -14.19 381.48 -13.72 L 381.48 -13.72 L 381.48 -11.66 L 379.19 -11.66 L 379.19 -13.72 L 371.41 -13.72 L 371.41 -9.15 L 379.19 -9.15 Q 379.66 -9.15 380.07 -8.97 Q 380.49 -8.79 380.81 -8.48 Q 381.12 -8.16 381.3 -7.74 Q 381.48 -7.33 381.48 -6.86 L 381.48 -6.86 L 381.48 -2.29 Q 381.48 -1.82 381.3 -1.4 Q 381.12 -0.98 380.81 -0.67 Q 380.49 -0.36 380.07 -0.18 Q 379.66 0 379.19 0 L 379.19 0 L 371.19 0 Q 370.72 0 370.3 -0.18 Q 369.89 -0.36 369.57 -0.67 Q 369.26 -0.98 369.08 -1.4 Q 368.9 -1.82 368.9 -2.29 Z M 410.99 0 L 399.32 0 L 399.32 -16.01 L 410.99 -16.01 L 410.99 -13.72 L 401.61 -13.72 L 401.61 -9.15 L 409.61 -9.15 L 409.61 -6.86 L 401.61 -6.86 L 401.61 -2.29 L 410.99 -2.29 L 410.99 0 Z"
                    stroke-linecap="round" />
            </g>
        </g>
    </g>
</svg>