<svg width="19" height="13" viewBox="0 0 19 13" fill="none" xmlns="http://www.w3.org/2000/svg">
<path d="M12.493 0.630132C12.3305 0.518619 12.1584 0.419499 11.9762 0.334909L18.256 0.078921L10.9109 0.0296976C9.47001 -0.152653 7.90792 0.509466 6.66833 1.77418C4.468 1.49669 2.19009 1.59755 0 1.8182C0.0987714 1.8125 0.198333 1.80706 0.297789 1.8016C0.198832 1.80904 0.100699 1.81607 0.000325213 1.8242C0.664024 2.85782 1.29757 3.85732 1.90296 4.82264C2.97268 4.5404 3.95773 4.32773 4.86294 4.17856C4.50959 3.37351 4.14625 2.55097 3.77292 1.71153C4.69164 1.72413 5.61454 1.77399 6.52537 1.88159C6.52874 1.89271 6.53204 1.90365 6.53541 1.91475C6.74018 2.59054 6.94221 3.25972 7.14132 3.92162C7.30173 3.91291 7.45945 3.9066 7.6145 3.90261C7.92457 3.89463 8.22399 3.89598 8.51293 3.90619C8.65739 3.9113 8.79924 3.91861 8.9385 3.92809C8.83238 3.3693 8.72578 2.80913 8.61877 2.24783C9.17628 2.38076 9.72345 2.54356 10.2564 2.74101C10.2744 2.93307 10.2925 3.12687 10.3104 3.31966C10.3286 3.51407 10.3467 3.70809 10.3649 3.90322C10.3717 3.97551 10.3783 4.04703 10.3851 4.11942C10.8045 4.20478 11.1991 4.314 11.5694 4.44521C11.5692 4.35506 11.569 4.26721 11.5688 4.17746C11.5686 4.06713 11.5684 3.95798 11.5681 3.84828C11.5679 3.75112 11.5677 3.65343 11.5675 3.55675C11.5673 3.47685 11.5672 3.39535 11.567 3.31579C11.788 3.42932 12.0054 3.55068 12.2193 3.67968C12.2972 3.72667 12.3755 3.77286 12.4524 3.822C12.5146 3.86178 12.5756 3.90432 12.6371 3.94551C12.6233 4.09862 12.609 4.25588 12.5949 4.41118C12.5915 4.44838 12.5882 4.48541 12.5848 4.52274C12.5742 4.63998 12.5638 4.75458 12.553 4.87309C12.7535 4.97814 12.9437 5.09437 13.1293 5.21559C13.1438 5.22507 13.1581 5.23479 13.1726 5.24437C13.2055 5.26626 13.2389 5.28774 13.2713 5.31014C13.2723 5.29743 13.2736 5.28463 13.2745 5.27196C13.276 5.25204 13.2784 5.2318 13.2796 5.21196C13.2929 4.99165 13.2919 4.7766 13.279 4.56699C13.2777 4.54588 13.2757 4.5251 13.2741 4.5041C13.2716 4.46977 13.2695 4.43521 13.2662 4.40121C13.2657 4.39601 13.2655 4.39069 13.265 4.3855C13.2642 4.37735 13.2639 4.36893 13.2631 4.3608C13.2454 4.18974 13.2184 4.02337 13.1838 3.86159C13.1794 3.84121 13.175 3.8209 13.1703 3.80067C13.1192 3.57679 13.0516 3.36314 12.9697 3.16055C12.962 3.14153 12.9553 3.12179 12.9474 3.10298C12.8517 2.87631 12.7373 2.66452 12.6058 2.47011C12.5926 2.45047 12.5779 2.43223 12.5643 2.41295C12.399 2.17902 12.2095 1.9704 11.9967 1.79389C11.972 1.77338 11.9459 1.75484 11.9206 1.73517C11.5659 1.45977 11.1538 1.26812 10.697 1.17901C9.96125 1.0355 9.11125 1.15687 8.20139 1.62868C8.95537 1.06772 9.9572 0.801367 10.8885 0.943821C11.0522 0.968874 11.2136 1.00624 11.3712 1.0574C11.4786 1.09228 11.5839 1.13406 11.6871 1.18156C11.8911 1.27544 12.0869 1.39132 12.2681 1.53695C12.3369 1.59465 12.4025 1.6543 12.4662 1.71511C12.5109 1.75787 12.5528 1.80226 12.595 1.84648C12.7605 2.01984 12.9077 2.20339 13.0353 2.39668C13.0646 2.44097 13.0922 2.48602 13.1195 2.53123C13.2279 2.71055 13.3226 2.89632 13.4016 3.08835C13.4215 3.13665 13.4391 3.18585 13.4572 3.23486C13.5238 3.41497 13.5788 3.59927 13.6219 3.78724C13.6343 3.84139 13.6452 3.89592 13.6557 3.95059C13.6899 4.12869 13.7142 4.3093 13.7291 4.4918C13.7339 4.55191 13.7389 4.61198 13.7418 4.67242C13.75 4.84756 13.7503 5.0239 13.7421 5.2008C13.7391 5.2654 13.7338 5.33007 13.7287 5.39474C13.715 5.56773 13.6935 5.74074 13.6652 5.9133C13.6543 5.97953 13.6425 6.04561 13.6295 6.11162C13.5954 6.28509 13.5546 6.45759 13.5067 6.62846C13.4894 6.69044 13.4716 6.75232 13.4525 6.81381C13.3967 6.99364 13.3335 7.17122 13.2634 7.34567C13.2428 7.39689 13.2207 7.44736 13.199 7.49801C13.1159 7.69136 13.0248 7.88045 12.9254 8.06387C12.6511 8.57053 12.318 9.0349 11.939 9.42807C11.2004 10.215 10.22 10.8132 9.14369 10.9639C8.78707 11.0061 8.42742 10.9965 8.08079 10.9292C9.99288 10.9871 11.5486 9.70715 12.4454 8.06872C12.448 8.06412 12.4505 8.05949 12.453 8.05488C12.4587 8.04425 12.4645 8.03363 12.4703 8.02298C12.4721 8.01951 12.474 8.01606 12.4759 8.0126C12.4065 8.01748 12.3375 8.02136 12.2662 8.03087C12.2869 7.80333 12.307 7.58207 12.3273 7.35883C12.334 7.28521 12.3408 7.21035 12.3474 7.13719C12.3537 7.06836 12.3602 6.99708 12.3664 6.92866C12.1803 6.90503 11.9846 6.89769 11.7843 6.89856C11.7145 6.89887 11.6462 6.89645 11.5746 6.89981C11.575 7.05469 11.5753 7.21332 11.5756 7.3694C11.5761 7.60476 11.5766 7.83938 11.5771 8.07749C11.5772 8.11395 11.5773 8.1494 11.5774 8.18593C11.5546 8.19301 11.5304 8.20317 11.5074 8.21068C11.2671 8.28522 11.0281 8.37866 10.7915 8.48792C10.779 8.35327 10.7666 8.22012 10.7541 8.08581C10.7323 7.85067 10.7105 7.61597 10.6888 7.38186C10.6775 7.26107 10.6662 7.13915 10.655 7.01862C10.3703 7.07707 10.0723 7.15811 9.76269 7.26002C9.73495 7.26915 9.70708 7.27848 9.67914 7.28798C9.64613 7.29919 9.61373 7.30929 9.58046 7.321C9.60435 7.44775 9.628 7.57375 9.65184 7.70036C9.67672 7.83247 9.70148 7.96421 9.72632 8.09619C9.78175 8.3908 9.83739 8.68597 9.89258 8.97985C9.54094 9.2009 9.19743 9.44859 8.86538 9.71147C8.68494 9.09934 8.50208 8.48095 8.3167 7.8561C7.84328 8.08799 7.34424 8.3654 6.82039 8.69086C7.11804 9.38499 7.40835 10.0656 7.69162 10.7331C7.6051 10.8146 7.52021 10.896 7.43637 10.9773C7.24611 11.1602 7.05249 11.3533 6.85608 11.555C6.83172 11.5798 6.8073 11.6047 6.78325 11.6293C6.62844 11.7879 6.48004 11.9422 6.33926 12.0893C6.33888 12.0897 6.33846 12.0902 6.33807 12.0906C6.3385 12.0903 6.33893 12.0898 6.33936 12.0895C6.35178 12.0806 6.36385 12.0687 6.37619 12.0593C6.52658 11.9441 6.67316 11.7942 6.82259 11.6486C6.82561 11.65 6.82846 11.6516 6.83149 11.653C9.14945 12.6975 12.1412 11.0903 13.5807 8.05725L14.4969 8.04799L13.7305 7.72325C13.7848 7.59475 13.8365 7.46601 13.8835 7.33696L14.8386 7.32353L13.9942 7.01301C14.0361 6.88125 14.073 6.74949 14.1076 6.61782L15.168 6.59907L14.1865 6.28808C14.2145 6.15861 14.2396 6.02946 14.2607 5.90077L15.5035 5.87461L14.3104 5.55201C14.3246 5.42936 14.3346 5.30758 14.3425 5.18629L15.8391 5.15014L14.3567 4.81248C14.358 4.69911 14.357 4.58649 14.3529 4.47494L16.1746 4.42569L14.326 4.07702C14.3157 3.97268 14.3026 3.86961 14.2873 3.76747L16.5164 3.70122L14.2109 3.34976C14.1894 3.25337 14.1655 3.15832 14.1394 3.06457L16.8643 2.97677L13.9999 2.63598C13.966 2.54482 13.9304 2.45487 13.8917 2.36708L17.2122 2.2523L13.678 1.94166C13.6265 1.85076 13.5719 1.76248 13.5147 1.67656L17.5602 1.52784L13.2066 1.27116C13.1238 1.17514 13.0372 1.08307 12.946 0.996262L17.9143 0.803376L12.493 0.630132ZM5.3308 6.72286C5.18262 6.78234 5.03184 6.84505 4.87905 6.91031C4.72624 6.97556 4.57143 7.04334 4.41517 7.11297C4.33478 7.14878 4.25617 7.18236 4.17471 7.21954C3.97563 7.31041 3.77334 7.40536 3.56783 7.50447C4.06323 8.31055 4.53862 9.09148 4.99661 9.84949C5.01041 9.87656 5.02544 9.90262 5.03971 9.9293C5.03891 9.92473 5.03766 9.92048 5.03688 9.91588C5.66133 9.44871 6.25626 9.04131 6.82039 8.69086C6.51498 7.97864 6.20167 7.25182 5.88014 6.51031C5.70021 6.57724 5.5171 6.64807 5.3308 6.72286ZM7.74135 5.92335C7.54416 5.26318 7.34416 4.59593 7.14132 3.92162C6.79033 3.94065 6.4252 3.97117 6.04558 4.0138C5.7357 4.04859 5.4136 4.09364 5.08423 4.14488C5.01011 4.15641 4.93806 4.16618 4.86294 4.17856C4.89876 4.26017 4.93335 4.33962 4.96897 4.42089C5.27965 5.12963 5.58404 5.82741 5.88014 6.51031C6.20996 6.38759 6.52994 6.27762 6.84012 6.17994C7.1503 6.08226 7.45069 5.99688 7.74135 5.92335ZM8.52432 5.74891C8.27097 5.79735 8.01 5.85537 7.74135 5.92335C7.93579 6.57434 8.12756 7.21859 8.3167 7.8561C8.42727 7.80194 8.53653 7.75022 8.64449 7.7009C8.86039 7.60225 9.07106 7.51323 9.27642 7.43355C9.37909 7.39371 9.48044 7.35621 9.58046 7.321C9.47458 6.75931 9.36826 6.19632 9.26149 5.63202C9.02338 5.66162 8.77766 5.70047 8.52432 5.74891ZM9.86134 5.57635C9.87692 5.57538 9.89304 5.57372 9.90856 5.57284C9.91488 5.57248 9.92097 5.57243 9.92727 5.57209C9.95558 5.57054 9.983 5.57007 10.0111 5.5688C10.028 5.56803 10.0447 5.56747 10.0615 5.5668C10.2172 5.56063 10.3705 5.55734 10.5193 5.55968C10.5105 5.46577 10.5019 5.37298 10.4931 5.27925C10.488 5.22368 10.4828 5.16851 10.4777 5.113C10.4611 4.93538 10.4446 4.75807 10.4281 4.58105C10.4256 4.55418 10.4231 4.52718 10.4206 4.50032C10.4088 4.37363 10.3969 4.24581 10.3851 4.11942C10.3394 4.11012 10.2919 4.10232 10.2455 4.09358C10.2135 4.08754 10.1814 4.0815 10.1491 4.07573C10.1129 4.06927 10.0778 4.06189 10.0413 4.05577C9.80818 4.01677 9.56716 3.98469 9.31811 3.95986C9.19358 3.94744 9.06705 3.93684 8.9385 3.92809C9.04661 4.49737 9.15428 5.06536 9.26149 5.63202C9.46684 5.60647 9.6664 5.58848 9.86134 5.57635ZM11.5741 6.66266C11.5737 6.48149 11.5734 6.30216 11.573 6.12262C11.5729 6.06766 11.5727 6.01214 11.5726 5.95734C11.5724 5.85661 11.5722 5.75374 11.572 5.65351C11.2406 5.5973 10.8897 5.56547 10.5193 5.55968C10.5249 5.61996 10.5306 5.68101 10.5362 5.74136C10.5435 5.8202 10.5509 5.89973 10.5583 5.97869C10.5712 6.11735 10.5841 6.25644 10.597 6.39546C10.6059 6.49019 10.6146 6.58457 10.6235 6.67948C10.634 6.7928 10.6445 6.90506 10.655 7.01862C10.9765 6.95263 11.2832 6.91346 11.5746 6.89981C11.5746 6.86943 11.5745 6.83996 11.5744 6.80963C11.5743 6.7602 11.5742 6.71196 11.5741 6.66266ZM11.5702 4.81115C11.5705 4.95791 11.5708 5.10535 11.5711 5.25322C11.5713 5.32225 11.5714 5.39031 11.5716 5.45958C11.5717 5.52467 11.5718 5.5882 11.572 5.65351C11.8847 5.70655 12.1813 5.78151 12.4619 5.8772C12.466 5.83264 12.4698 5.78988 12.4739 5.74548C12.4896 5.57185 12.5051 5.40127 12.5206 5.23029C12.5254 5.17775 12.5303 5.12428 12.535 5.072C12.541 5.0063 12.5471 4.9384 12.553 4.87309C12.3205 4.75119 12.0734 4.64358 11.8188 4.54345C11.7356 4.51073 11.6549 4.47553 11.5694 4.44521C11.5695 4.47985 11.5695 4.51549 11.5696 4.55019C11.5698 4.63644 11.57 4.72451 11.5702 4.81115ZM13.0288 6.658C13.0309 6.65094 13.0328 6.64388 13.0348 6.63681C13.0791 6.48228 13.1179 6.3272 13.1505 6.17199C12.9783 6.08337 12.7985 6.00525 12.6128 5.93545C12.5622 5.91645 12.5135 5.89479 12.4619 5.8772C12.4601 5.8974 12.4582 5.9185 12.4563 5.93874C12.4416 6.10061 12.4265 6.2668 12.4116 6.43103C12.405 6.50347 12.3985 6.57528 12.3919 6.64819C12.3833 6.74235 12.375 6.83373 12.3664 6.92866C12.5536 6.95242 12.7321 6.99202 12.9058 7.03993C12.9507 6.9133 12.9917 6.78595 13.0288 6.658Z" fill="black"/>
</svg>
